<svg xmlns="http://www.w3.org/2000/svg" width="29.633" height="29.621" viewBox="0 0 29.633 29.621"><defs><style>.a{opacity:0.6;}</style></defs><g class="a" transform="translate(0 0)"><g transform="translate(0 0)"><path d="M29.406,25.365l-3.783-3.153a.63.63,0,0,0-1.033.484v1.891H5.045V5.042h1.89a.021.021,0,0,1,.013,0,.631.631,0,0,0,.407-1.113L4.268.225a.653.653,0,0,0-.969,0L.146,4.008A.631.631,0,0,0,.63,5.042H2.522V25.848a1.261,1.261,0,0,0,1.261,1.261H24.589V29a.629.629,0,0,0,.363.571.643.643,0,0,0,.268.06.636.636,0,0,0,.4-.145l3.783-3.153a.63.63,0,0,0,0-.968Z" transform="translate(0 -0.01)"/><path d="M11,29.883a1.892,1.892,0,0,0,1.892,1.891H25.5a1.891,1.891,0,0,0,0-3.783H12.891A1.892,1.892,0,0,0,11,29.883Z" transform="translate(-4.064 -10.349)"/><path d="M12.891,23.774h6.3a1.891,1.891,0,1,0,0-3.783h-6.3a1.891,1.891,0,1,0,0,3.783Z" transform="translate(-4.064 -7.393)"/><path d="M11,13.882a1.892,1.892,0,0,0,1.892,1.891h9.457a1.891,1.891,0,1,0,0-3.783H12.891A1.891,1.891,0,0,0,11,13.882Z" transform="translate(-4.064 -4.437)"/></g></g></svg>