<svg xmlns="http://www.w3.org/2000/svg" xmlns:xlink="http://www.w3.org/1999/xlink" width="35.296" height="35.296" viewBox="0 0 35.296 35.296"><defs><style>.a{opacity:0.6;clip-path:url(#a);}</style><clipPath id="a"><path d="M0,0H35.3V35.3H0Z"/></clipPath></defs><g class="a" transform="translate(0 0)"><path d="M31.413,12.824V6.941A2.941,2.941,0,0,0,28.472,4H4.941A2.928,2.928,0,0,0,2.015,6.941v5.883A2.941,2.941,0,0,1,2,18.707v5.883a2.95,2.95,0,0,0,2.941,2.941H28.472a2.95,2.95,0,0,0,2.941-2.941V18.707a2.941,2.941,0,0,1,0-5.883ZM18.177,23.854H15.236V20.913h2.941Zm0-6.618H15.236V14.295h2.941Zm0-6.618H15.236V7.677h2.941Z" transform="translate(0.941 1.883)"/></g></svg>