<svg xmlns="http://www.w3.org/2000/svg" width="16" height="16" viewBox="0 0 16 16"><defs><style>.a{opacity:0.37;}.b{fill:none;}</style></defs><g class="a"><path class="b" d="M0,0H16V16H0ZM12.207,4l-1.84,3.333Z"/><path d="M7.667,6.333H9v-2h2V3H9V1H7.667V3h-2V4.333h2ZM5,12.333a1.333,1.333,0,1,0,1.333,1.333A1.332,1.332,0,0,0,5,12.333Zm6.667,0A1.333,1.333,0,1,0,13,13.667,1.332,1.332,0,0,0,11.667,12.333ZM5.113,10.167l.02-.08L5.733,9H10.7a1.327,1.327,0,0,0,1.167-.687L14.44,3.64,13.28,3h-.007L12.54,4.333,10.7,7.667H6.02l-.087-.18L4.44,4.333,3.807,3,3.18,1.667H1V3H2.333l2.4,5.06-.9,1.633a1.289,1.289,0,0,0-.167.64A1.337,1.337,0,0,0,5,11.667h8V10.333H5.28A.169.169,0,0,1,5.113,10.167Z" transform="translate(-0.333 -0.333)"/></g></svg>