<svg xmlns="http://www.w3.org/2000/svg" width="29.422" height="35.309" viewBox="0 0 29.422 35.309"><defs><style>.a{opacity:0.6;}</style></defs><g class="a" transform="translate(0 0)"><path class="icon1" d="M230.722,184.083l-16.182-13.241a.736.736,0,0,0-1.2.569v22.068a.736.736,0,0,0,.522.7.728.728,0,0,0,.213.031.736.736,0,0,0,.612-.328l5.667-8.5h9.9a.736.736,0,0,0,.465-1.3Z" transform="translate(-201.57 -158.906)"/><g transform="translate(0)"><path d="M214.075,7.356a.736.736,0,0,1-.736-.736V.736a.736.736,0,1,1,1.471,0V6.62A.736.736,0,0,1,214.075,7.356Z" transform="translate(-201.57 0)"/><path d="M49.293,172.137H43.409a.736.736,0,0,1,0-1.471h5.884a.736.736,0,0,1,0,1.471Z" transform="translate(-42.673 -158.896)"/><path d="M305.293,172.137h-5.884a.736.736,0,0,1,0-1.471h5.884a.736.736,0,0,1,0,1.471Z" transform="translate(-281.02 -158.896)"/><path d="M97.529,55.592a.735.735,0,0,1-.521-.215L92.847,51.22a.74.74,0,1,1,1.046-1.046l4.156,4.162a.736.736,0,0,1-.521,1.256h0Z" transform="translate(-89.185 -46.512)"/><path d="M93.375,236.743a.736.736,0,0,1-.521-1.256l4.162-4.162a.736.736,0,0,1,1.04,1.04L93.9,236.528A.735.735,0,0,1,93.375,236.743Z" transform="translate(-89.192 -215.179)"/><path d="M274.388,55.729a.736.736,0,0,1-.521-1.256l4.157-4.162a.736.736,0,0,1,1.04,1.04l-4.156,4.162A.735.735,0,0,1,274.388,55.729Z" transform="translate(-257.723 -46.648)"/></g></g></svg>

