<svg xmlns="http://www.w3.org/2000/svg" width="35.307" height="28.483" viewBox="0 0 35.307 28.483"><defs><style>.a{opacity:0.6;}</style></defs><g transform="translate(0 0)"><g transform="translate(0 7.289)"><path class="a" d="M13.783,157.383v-.846H2.849v1.9H0v7.883H2.849v1.9H13.783v-.846h0v-9.99Z" transform="translate(0 -156.537)"/></g><g transform="translate(5.558 20.805)"><path class="a" d="M87.7,353.237H81.062l1.672,7.678h6.638Z" transform="translate(-81.062 -353.237)"/></g><g transform="translate(15.256 0)"><path class="a" d="M229.09,56.224c-.912.341-1.749.622-2.489.852V68.069c.74.23,1.577.511,2.489.852a48.048,48.048,0,0,1,12.256,6.746V49.478A48.042,48.042,0,0,1,229.09,56.224Z" transform="translate(-226.601 -49.478)"/></g><g transform="translate(32.138 8.141)"><path class="a" d="M467.458,168.7h-.566v9.973h.566a2.606,2.606,0,0,0,2.6-2.6v-4.767A2.606,2.606,0,0,0,467.458,168.7Z" transform="translate(-466.892 -168.704)"/></g></g></svg>